<svg id="visual" viewBox="0 0 900 600" width="900" height="600" xmlns="http://www.w3.org/2000/svg" xmlns:xlink="http://www.w3.org/1999/xlink" version="1.1"><path d="M0 230L21.5 254C43 278 86 326 128.8 350.5C171.7 375 214.3 376 257.2 347.7C300 319.3 343 261.7 385.8 232.2C428.7 202.7 471.3 201.3 514.2 222C557 242.7 600 285.3 642.8 278.8C685.7 272.3 728.3 216.7 771.2 192.2C814 167.7 857 174.3 878.5 177.7L900 181L900 601L878.5 601C857 601 814 601 771.2 601C728.3 601 685.7 601 642.8 601C600 601 557 601 514.2 601C471.3 601 428.7 601 385.8 601C343 601 300 601 257.2 601C214.3 601 171.7 601 128.8 601C86 601 43 601 21.5 601L0 601Z" fill="#7490bb" stroke-linecap="round" stroke-linejoin="miter"></path></svg>